<svg viewBox="0 0 200 200" width="200" height="200" xmlns="http://www.w3.org/2000/svg"><defs><linearGradient id="g" x1="0%" y1="0%" x2="100%" y2="100%"><stop offset="0%" stop-color="#8fe9f7"/><stop offset="100%" stop-color="#b56cf0"/></linearGradient><radialGradient id="core" cx="50%" cy="50%" r="60%"><stop offset="0%" stop-color="#ffffff"/><stop offset="50%" stop-color="#e8fbff"/><stop offset="100%" stop-color="#8fe9f7"/></radialGradient><filter id="b" x="-30%" y="-30%" width="160%" height="160%"><feGaussianBlur stdDeviation="3.2"/></filter><filter id="bb" x="-40%" y="-40%" width="180%" height="180%"><feGaussianBlur stdDeviation="6"/></filter></defs><g filter="url(#b)" opacity="0.9"><g><path d="M 116.0 100.0 L 117.8 105.8 L 117.3 112.5 L 114.1 119.4 L 108.2 125.4 L 100.0 129.3 L 90.1 130.4 L 79.6 128.0 L 69.8 121.9 L 62.0 112.4 L 57.3 100.0 L 56.9 86.0 L 61.2 71.8 L 70.2 59.0 L 83.5 49.3 L 100.0 44.0 L 118.1 44.2 L 136.1 50.4 L 151.8 62.4 L 163.4 79.4 L 169.3 100.0 L 168.5 122.2 L 160.4 143.9 L 145.5 162.6 L 124.7 176.1" fill="none" stroke="url(#g)" stroke-width="16" stroke-linecap="round"/></g><g transform="rotate(180 100 100)"><path d="M 116.0 100.0 L 117.8 105.8 L 117.3 112.5 L 114.1 119.4 L 108.2 125.4 L 100.0 129.3 L 90.1 130.4 L 79.6 128.0 L 69.8 121.9 L 62.0 112.4 L 57.3 100.0 L 56.9 86.0 L 61.2 71.8 L 70.2 59.0 L 83.5 49.3 L 100.0 44.0 L 118.1 44.2 L 136.1 50.4 L 151.8 62.4 L 163.4 79.4 L 169.3 100.0 L 168.5 122.2 L 160.4 143.9 L 145.5 162.6 L 124.7 176.1" fill="none" stroke="url(#g)" stroke-width="16" stroke-linecap="round"/></g></g><circle cx="100" cy="100" r="30" fill="url(#core)" filter="url(#b)"/><circle cx="100" cy="100" r="13.5" fill="#e8fbff"/></svg>