<svg viewBox="0 0 200 200" width="200" height="200" xmlns="http://www.w3.org/2000/svg"><defs><radialGradient id="g" cx="50%" cy="50%" r="70%"><stop offset="0%" stop-color="#ffe7d8"/><stop offset="50%" stop-color="#fb8fc0"/><stop offset="100%" stop-color="#ec5fa8"/></radialGradient><radialGradient id="core" cx="50%" cy="50%" r="60%"><stop offset="0%" stop-color="#ffffff"/><stop offset="60%" stop-color="#ffe7d8"/><stop offset="100%" stop-color="#fb8fc0"/></radialGradient><filter id="b" x="-30%" y="-30%" width="160%" height="160%"><feGaussianBlur stdDeviation="3.2"/></filter><filter id="bb" x="-40%" y="-40%" width="180%" height="180%"><feGaussianBlur stdDeviation="6"/></filter></defs><g filter="url(#b)" opacity="0.6"><g transform="translate(0,0)"><ellipse cx="62" cy="100" rx="38" ry="54" fill="url(#g)" transform="rotate(-16 62 100)"/></g><g transform="translate(200,0) scale(-1,1)"><ellipse cx="62" cy="100" rx="38" ry="54" fill="url(#g)" transform="rotate(-16 62 100)"/></g></g><g filter="url(#b)"><g><ellipse cx="62" cy="100" rx="38" ry="54" fill="url(#g)" transform="rotate(-16 62 100)"/></g><g transform="translate(200,0) scale(-1,1)"><ellipse cx="62" cy="100" rx="38" ry="54" fill="url(#g)" transform="rotate(-16 62 100)"/></g></g><circle cx="100" cy="100" r="22" fill="url(#core)" filter="url(#b)"/><circle cx="100" cy="100" r="9.9" fill="#ffe7d8"/></svg>