<?xml version="1.0" encoding="UTF-8"?>
<!-- Generator: visioncortex VTracer 0.6.12 -->
<svg version="1.1" xmlns="http://www.w3.org/2000/svg" width="1024" height="1024">
<path d="M0 0 C337.92 0 675.84 0 1024 0 C1024 337.92 1024 675.84 1024 1024 C686.08 1024 348.16 1024 0 1024 C0 686.08 0 348.16 0 0 Z " fill="#FDFDFD" transform="translate(0,0)"/>
<path d="M0 0 C1.4025 0.969375 2.805 1.93875 4.25 2.9375 C5.1575 3.618125 6.065 4.29875 7 5 C5.234946 8.530108 0.580328 8.806557 -3 10 C-9.917231 13.000245 -14.765791 15.648686 -19 22 C-19 29.071842 -17.374486 32.207935 -11.6875 36.5 C22.11252 54.526677 64.441923 56.193862 101.9375 56.125 C104.070254 56.128867 106.203008 56.132734 108.400391 56.136719 C110.44291 56.13543 112.48543 56.134141 114.589844 56.132812 C116.444724 56.131685 118.299604 56.130557 120.210693 56.129395 C125 56 125 56 131 55 C132.144688 54.95875 132.144688 54.95875 137.9375 54.75 C163.878618 53.328878 200.173848 49.876364 221 33 C224 28 224 28 223 21 C216.982825 14.982825 211.524247 11.598909 203.625 8.75 C202.90957 8.489609 202.90957 8.489609 199.289062 7.171875 C198.203672 6.785156 197.118281 6.398438 196 6 C202.984721 -0.984721 209.747138 -7.398706 220 -6.4375 C221.98 -5.633125 223.96 -4.82875 226 -4 C228.31 -3.113125 230.62 -2.22625 233 -1.3125 C247.948991 5.761576 259.583678 13.440419 266 29 C266 40.344615 262.312508 46.468741 255 55 C254.34 55 253.68 55 253 55 C253 55.66 253 56.32 253 57 C254.32 57.66 255.64 58.32 257 59 C282.322058 84.997313 293.989597 116.756164 289.351562 153.078125 C282.763105 185.400985 261.508835 212.249849 235 231 C235.33 231.66 235.66 232.32 236 233 C242.915266 232.650744 249.787084 232.115953 256.679688 231.457031 C258.621016 231.306211 260.562344 231.155391 262.5625 231 C264.399414 230.835 266.236328 230.67 268.128906 230.5 C274.378973 231.141547 275.768975 232.721437 279 238 C279.33 240.31 279.66 242.62 280 245 C280.99 245.66 281.98 246.32 283 247 C283.811517 254.810851 283.789957 256.210043 278 262 C267.899278 270.566221 260.983542 269.101021 248.875 266.5 C245.705974 265.884157 242.53671 265.269535 239.367188 264.65625 C237.976128 264.365566 236.585068 264.074883 235.151855 263.775391 C227.246962 262.299091 221.564363 261.62037 213.9375 264.4375 C211.648125 265.283125 209.35875 266.12875 207 267 C208.051875 267.391875 208.051875 267.391875 213.375 269.375 C220 272 220 272 222 274 C222.6875 279.4375 222.6875 279.4375 222 285 C215.882356 287.720308 209.595271 288.72569 203 289.6875 C201.329375 289.938867 199.65875 290.190234 197.9375 290.449219 C184.852361 291.908874 177.687532 288.554708 166.5 281.5625 C157.37563 277.965393 149.612632 279.031168 140 280 C137.250546 280.195343 134.500596 280.383962 131.75 280.5625 C129.8525 280.706875 127.955 280.85125 126 281 C126.010313 282.051875 126.010313 282.051875 126.0625 287.375 C126 294 126 294 125 296 C116.40624 297.143904 107.846067 297.133894 99.1875 297.125 C96.664805 297.127578 94.142109 297.130156 91.542969 297.132812 C85 297 85 297 79 296 C79 290.72 79 285.44 79 280 C77.35 280.020625 75.7 280.04125 74 280.0625 C69.370516 280.108136 64.903853 279.903347 60.285156 279.496094 C46.51764 278.398495 39.260418 278.906574 28 287 C18.086859 292.746749 9.793267 291.002081 -1.25 289.125 C-3.338281 288.776953 -5.426562 288.428906 -7.578125 288.070312 C-13 287 -13 287 -18 285 C-19 279.1875 -19 279.1875 -18 273 C-12.814495 269.789926 -9.135549 268 -3 268 C-3 267.34 -3 266.68 -3 266 C-4.299375 265.896875 -5.59875 265.79375 -6.9375 265.6875 C-12 265 -12 265 -15.996094 263.320312 C-22.669267 261.559553 -27.399645 262.760562 -34.125 264.1875 C-36.509766 264.660586 -38.894531 265.133672 -41.351562 265.621094 C-45.141917 266.407225 -48.930118 267.204379 -52.710938 268.035156 C-64.689725 270.295072 -70.036748 265.170602 -79 258 C-79.3125 252.25 -79.3125 252.25 -79 247 C-77.68 246.67 -76.36 246.34 -75 246 C-74.644821 243.336155 -74.314001 240.669012 -74 238 C-68.405711 231.007139 -68.405711 231.007139 -62.050781 230.988281 C-60.487148 231.095273 -58.923516 231.202266 -57.3125 231.3125 C-56.472031 231.366641 -56.472031 231.366641 -52.21875 231.640625 C-50.496562 231.759219 -48.774375 231.877813 -47 232 C-43.771011 232.19053 -40.541855 232.378275 -37.3125 232.5625 C-34.899375 232.706875 -32.48625 232.85125 -30 233 C-35 228 -35 228 -41.125 222.875 C-72.098853 196.720078 -88.598705 162.813589 -86 122 C-81.415152 95.991104 -68.095377 74.800392 -50 56 C-51.0725 54.845 -52.145 53.69 -53.25 52.5 C-60.321867 44.013759 -63.770697 36.31888 -61.0625 25.125 C-53.533011 10.066021 -38.689684 3.368629 -24 -3 C-22.979062 -3.474375 -22.979062 -3.474375 -17.8125 -5.875 C-9.700162 -7.44513 -6.574156 -4.695826 0 0 Z " fill="#143551" transform="translate(410,457)"/>
<path d="M0 0 C10.25367 12.304404 7.136852 26.681555 6.1875 41.75 C6.100488 43.223398 6.013477 44.696797 5.923828 46.214844 C5.579422 51.81208 5.22619 57.244048 4.125 62.75 C3.852276 66.048208 3.618043 69.349663 3.40625 72.652344 C3.278633 74.594316 3.151016 76.536289 3.019531 78.537109 C2.889336 80.566738 2.759141 82.596367 2.625 84.6875 C2.367324 88.696792 2.107023 92.705916 1.84375 96.714844 C1.729668 98.494958 1.615586 100.275073 1.498047 102.109131 C1.125 106.75 1.125 106.75 0.125 112.75 C-0.357269 118.394867 -0.813705 124.039085 -1.25 129.6875 C-3.131134 153.417122 -5.440956 177.081239 -8.125 200.734375 C-8.966704 208.607812 -9.680875 216.487464 -10.375 224.375 C-11.400159 236.013487 -12.665392 247.599141 -14.121094 259.191406 C-15.200389 268.580713 -16.009688 277.991261 -16.785156 287.410156 C-17.404078 294.654352 -18.34612 301.644833 -19.875 308.75 C-20.04 310.585625 -20.205 312.42125 -20.375 314.3125 C-20.54 315.776875 -20.705 317.24125 -20.875 318.75 C-21.535 319.08 -22.195 319.41 -22.875 319.75 C-22.99875 318.161875 -23.1225 316.57375 -23.25 314.9375 C-23.875 308.75 -23.875 308.75 -24.820312 303.648438 C-25.918896 297.50451 -26.682087 291.38982 -27.375 285.1875 C-27.612188 283.082461 -27.849375 280.977422 -28.09375 278.808594 C-28.351562 276.479258 -28.609375 274.149922 -28.875 271.75 C-29.023615 270.429033 -29.17223 269.108066 -29.325348 267.74707 C-30.511733 257.172407 -31.621394 246.592098 -32.679688 236.003906 C-32.843806 234.368408 -33.007925 232.73291 -33.177017 231.047852 C-33.702718 225.802871 -34.226627 220.557714 -34.75 215.3125 C-34.928304 213.526977 -35.106607 211.741454 -35.290314 209.901825 C-37.338454 189.376019 -39.385358 168.850087 -41.3125 148.3125 C-41.463804 146.715432 -41.615107 145.118364 -41.770996 143.4729 C-42.404431 136.611941 -42.925406 129.785557 -43.285156 122.902344 C-43.690301 115.461867 -44.468666 108.095968 -45.300781 100.691406 C-46.875025 86.398803 -47.922117 72.099973 -48.810303 57.752686 C-49.066015 53.630844 -49.332189 49.509769 -49.599609 45.388672 C-51.913626 8.986613 -51.913626 8.986613 -42.0625 -1.1875 C-29.333339 -10.496886 -12.146167 -10.187108 0 0 Z " fill="#F0C60A" transform="translate(533.875,159.25)"/>
<path d="M0 0 C8.046595 8.046595 11 13.574214 11 25 C8.750962 31.747114 5.605117 37.787758 2.3125 44.0625 C1.636064 45.361956 0.959629 46.661411 0.262695 48.000244 C-2.942977 54.158097 -6.161663 60.309123 -9.378906 66.460938 C-17.997193 83.018433 -26.395396 99.682972 -34.75 116.375 C-35.886631 118.643669 -37.023262 120.912339 -38.194336 123.249756 C-44.429261 135.730958 -50.559773 148.253218 -56.534668 160.861084 C-59.082255 166.171457 -61.714314 171.432997 -64.375 176.6875 C-68.646288 185.175082 -72.709757 193.746817 -76.6875 202.375 C-80.617698 210.895816 -84.613101 219.354028 -88.855469 227.722656 C-97.281707 244.529087 -105.243813 261.553799 -112.953125 278.699219 C-113.628594 280.118477 -114.304062 281.537734 -115 283 C-115.33 283 -115.66 283 -116 283 C-115.010859 274.696759 -113.574956 266.482918 -112.125 258.25 C-111.996738 257.5075 -111.996738 257.5075 -111.347656 253.75 C-109.879138 245.396418 -108.118386 237.218388 -106 229 C-104.5625 221.1875 -104.5625 221.1875 -103.941406 217.542969 C-102.868306 212.364481 -101.477693 207.292524 -100.094482 202.189697 C-97.755561 193.236268 -95.832205 184.180643 -93.824219 175.148438 C-91.207589 163.518973 -91.207589 163.518973 -89 158 C-88.195208 154.758242 -87.429212 151.506769 -86.6875 148.25 C-84.829624 140.314756 -82.74759 132.520234 -80.386719 124.722656 C-78.635247 118.757784 -77.039083 112.756791 -75.4375 106.75 C-73.123222 98.105052 -70.703376 89.53253 -68 81 C-66.873608 77.271254 -65.748769 73.542038 -64.625 69.8125 C-60.526397 56.349423 -56.254913 43.057662 -51 30 C-49.872944 26.646524 -48.748175 23.292278 -47.625 19.9375 C-39.603497 -2.954374 -22.904118 -13.953083 0 0 Z " fill="#06C1D0" transform="translate(643,197)"/>
<path d="M0 0 C8.898656 9.240912 11.74494 23.199466 15.690674 35.072021 C16.914751 38.744253 18.154075 42.411393 19.394531 46.078125 C24.971357 62.619406 30.142002 79.23076 35 96 C35.297773 97.001602 35.297773 97.001602 36.804688 102.070312 C40.55126 114.708752 43.981039 127.403409 47.226562 140.179688 C48.583598 145.398595 49.993507 150.589816 51.449219 155.78125 C60.11612 186.843083 66.585742 218.412195 73 250 C73.568728 252.7761 74.137699 255.552149 74.707031 258.328125 C78.111407 275.08511 78.111407 275.08511 79 283 C74.756967 280.878483 72.943759 273.495164 71.125 269.5 C69.933615 266.900435 68.740883 264.301487 67.546875 261.703125 C66.946816 260.395371 66.346758 259.087617 65.728516 257.740234 C62.3686 250.469907 58.86617 243.268295 55.386719 236.054688 C52.852296 230.775371 50.334579 225.489707 47.832031 220.195312 C38.047842 199.501459 28.106629 178.891873 18.004639 158.351074 C12.932104 148.030271 7.926956 137.685159 3.056396 127.267334 C0.875046 122.740701 -1.444249 118.306383 -3.8125 113.875 C-7.741661 106.504015 -11.412199 99.043111 -15 91.5 C-19.196965 82.690634 -23.546443 74.008021 -28.136719 65.398438 C-31.994798 58.124406 -35.780729 50.813929 -39.5625 43.5 C-40.278252 42.120542 -40.994004 40.741084 -41.731445 39.319824 C-47.653763 27.85981 -49.858655 20.538464 -45 8 C-34.275733 -6.799488 -15.051913 -11.707044 0 0 Z " fill="#F97C18" transform="translate(418,197)"/>
<path d="M0 0 C8.740705 6.074049 15.048203 14.355591 21.6875 22.5625 C23.1725 24.2125 24.6575 25.8625 26.1875 27.5625 C40.386404 43.33906 53.037998 60.534945 65.6875 77.5625 C66.810273 79.065547 67.933047 80.568594 69.089844 82.117188 C77.238189 93.083689 85.06298 104.226484 92.6875 115.5625 C93.406797 116.628555 93.406797 116.628555 97.046875 122.023438 C116.565263 151.049564 134.264613 180.959605 150.640625 211.863281 C152.572027 215.475993 154.579825 219.049708 156.6875 222.5625 C156.3575 223.2225 156.0275 223.8825 155.6875 224.5625 C148.57518 216.986547 141.53041 209.382969 134.6875 201.5625 C131.331834 197.939716 127.95812 194.334463 124.578125 190.734375 C121.656967 187.602049 118.768333 184.439339 115.89624 181.261963 C108.961407 173.695603 101.71883 166.450223 94.457031 159.199219 C93.02663 157.767861 91.596229 156.336503 90.122482 154.861771 C87.115842 151.854454 84.107953 148.848385 81.098877 145.843506 C76.500317 141.250317 71.907137 136.651797 67.314453 132.052734 C64.383133 129.122075 61.451503 126.191726 58.519531 123.261719 C57.835595 122.576771 57.835595 122.576771 54.374466 119.110519 C48.301907 113.052854 42.225244 107.12368 35.6875 101.5625 C33.354167 99.229167 31.020833 96.895833 28.6875 94.5625 C26.02373 92.22586 23.356494 89.893171 20.6875 87.5625 C18.348816 85.40161 16.01596 83.234404 13.6875 81.0625 C8.760841 76.470916 3.771556 71.979794 -1.3125 67.5625 C-3.065625 65.95375 -4.81875 64.345 -6.625 62.6875 C-13.584631 56.416184 -20.808651 50.520638 -28.1875 44.75 C-35.469282 37.357888 -38.635754 28.883877 -37.3125 18.5625 C-31.066209 2.361183 -17.108647 -5.702882 0 0 Z " fill="#E71E43" transform="translate(325.3125,257.4375)"/>
<path d="M0 0 C10.202457 8.161966 11.464011 15.355709 11 28 C7.187019 42.449193 -10.916746 54.17715 -22.03125 63.558594 C-30.007233 70.322012 -37.695844 77.325646 -45.292969 84.511719 C-48.344122 87.382825 -51.446651 90.199237 -54.5625 93 C-57.310033 95.476649 -60.0094 98.0094 -62.625 100.625 C-66 104 -66 104 -69.6875 107.1875 C-74.290552 111.256865 -78.579307 115.548423 -82.875 119.9375 C-85.056916 122.075777 -87.316324 124.13654 -89.628662 126.133057 C-94.280575 130.2482 -98.673149 134.543538 -103.066406 138.933594 C-104.768613 140.634512 -106.47082 142.33543 -108.224609 144.087891 C-109.986113 145.853262 -111.747617 147.618633 -113.5625 149.4375 C-115.327871 151.199004 -117.093242 152.960508 -118.912109 154.775391 C-119.762568 155.626494 -119.762568 155.626494 -124.066406 159.933594 C-125.612717 161.481033 -127.159028 163.028472 -128.752197 164.622803 C-132.650249 168.639595 -136.327784 172.778193 -140 177 C-143.666667 180.666667 -147.333333 184.333333 -151 188 C-153.345842 190.65567 -155.677833 193.323604 -158 196 C-160.286821 198.442047 -162.579048 200.879036 -164.875 203.3125 C-169.16745 207.884097 -173.315487 212.491874 -177.25 217.375 C-181 222 -181 222 -183 223 C-175.061228 203.153069 -162.868355 184.339594 -152 166 C-151.626776 165.354663 -151.626776 165.354663 -149.738037 162.088867 C-143.89417 152.02216 -137.69219 142.275993 -131.1875 132.625 C-130.706519 131.907758 -130.706519 131.907758 -128.272461 128.278076 C-100.876306 87.476616 -71.845639 48.394947 -39.71875 11.175781 C-37.521948 8.609689 -35.37746 5.998868 -33.25 3.375 C-24.201293 -6.021734 -11.0195 -7.212764 0 0 Z " fill="#0271DA" transform="translate(724,260)"/>
<path d="M0 0 C7.735394 5.238371 15.379798 10.595847 23 16 C24.316133 16.915234 25.632266 17.830469 26.988281 18.773438 C34.620463 24.115101 41.855882 29.848762 49.046875 35.769531 C52.736497 38.784667 56.478553 41.713343 60.25 44.625 C64.737517 48.12944 69.011202 51.755071 73.1875 55.625 C76.895585 59.053982 80.702551 62.380958 84.625 65.5625 C90.106953 70.088298 95.008678 74.943855 100 80 C101.27875 81.11375 102.5575 82.2275 103.875 83.375 C112.195821 90.687237 119.749729 98.634303 127 107 C128.32 108.32 129.64 109.64 131 111 C136.383864 116.383864 141.245612 122.057015 146 128 C141.42618 125.71309 137.626087 122.899394 133.5 119.875 C126.436386 114.741919 119.313917 109.773293 112 105 C111.377383 104.592012 111.377383 104.592012 108.226562 102.527344 C88.889354 89.920064 69.206032 78.163333 49 67 C48.234941 66.568809 48.234941 66.568809 44.363281 64.386719 C16.482575 48.686155 -12.323015 33.917179 -41.75 21.3125 C-51.158853 17.013627 -54.898408 14.570381 -59 5 C-59.640819 -2.232097 -58.947068 -6.871657 -55 -13 C-35.748778 -29.042685 -17.395709 -11.267795 0 0 Z " fill="#8E24AD" transform="translate(322,358)"/>
<path d="M0 0 C7.723381 7.845974 8.544204 12.007074 8 23 C4.641325 31.956466 -0.945225 35.191431 -9.4375 38.875 C-28.333996 47.223015 -47.18864 55.725482 -65.386719 65.519531 C-70.643373 68.345929 -75.945835 71.076366 -81.25 73.8125 C-158.935558 114.339589 -158.935558 114.339589 -189.097656 140.5625 C-189.576543 140.964687 -189.576543 140.964687 -192 143 C-192.66 142.67 -193.32 142.34 -194 142 C-188.807739 136.168691 -183.519222 130.519222 -178 125 C-176.990664 123.828242 -175.981328 122.656484 -174.941406 121.449219 C-170.331854 116.24577 -165.481419 111.349357 -160.5625 106.4375 C-158.769414 104.641836 -156.976328 102.846172 -155.128906 100.996094 C-150.858456 96.836226 -146.515348 92.887167 -142 89 C-139.888805 87.049246 -137.784285 85.091235 -135.6875 83.125 C-129.977139 77.834712 -124.053373 72.897111 -118 68 C-115.70381 66.026083 -113.412399 64.046597 -111.125 62.0625 C-104.601134 56.457489 -97.883635 51.155145 -91 46 C-89.685156 44.999687 -88.370312 43.999375 -87.015625 42.96875 C-17.655239 -9.112382 -17.655239 -9.112382 0 0 Z " fill="#6B3CA8" transform="translate(752,341)"/>
<path d="M0 0 C-3 3 -3 3 -7.0625 5.75 C-11 9 -11 9 -13 16 C-1.080303 33.879545 28.418413 34.825778 48 37 C49.847227 37.20625 51.694453 37.4125 53.597656 37.625 C90.646994 41.232238 162.349203 46.650797 191 18 C191 10.89022 189.863889 9.863889 185 5 C183.02 3.68 181.04 2.36 179 1 C181 -3 181 -3 183 -4 C205.75 3.583333 205.75 3.583333 212 14 C210.577919 23.954567 205.174786 27.012109 197 32 C181.377434 38.757542 164.712333 41.381342 148 44 C146.880449 44.181758 146.880449 44.181758 141.214844 45.101562 C136.121913 45.837813 131.195778 46.335961 126.0625 46.5625 C121.221817 46.782327 116.803108 47.199482 112 48 C86.264371 48.917541 60.525793 48.525842 35 45 C34.16791 44.885918 34.16791 44.885918 29.957031 44.308594 C25.610232 43.641907 21.312496 42.860174 17 42 C16.11248 41.825977 16.11248 41.825977 11.621094 40.945312 C-25.981423 33.037154 -25.981423 33.037154 -33 19 C-33 11.350265 -31.534971 10.139616 -26 5 C-8.258055 -5.50537 -8.258055 -5.50537 0 0 Z " fill="#7BDCF3" transform="translate(423,466)"/>
<path d="M0 0 C-2 5 -2 5 -5.75 12 C-20.944289 42.139491 -20.801028 76.015626 -5.261719 105.945312 C1.213351 117.553469 8.727893 127.504942 18 137 C19.69125 138.815 21.3825 140.63 23.125 142.5 C31.843106 151.155296 42.280203 158.064824 53 164 C42.341797 167.552734 17.687531 150.925382 8.621094 144.667969 C-19.061896 123.913898 -41.31271 96.443546 -40.382812 60.394531 C-38.96321 44.098079 -20.983634 0 0 0 Z " fill="#53CAE7" transform="translate(381,525)"/>
<path d="M0 0 C15.239795 16.123261 17.549927 36.847904 13.75 57.9375 C12.215688 62.376044 10.578474 66.087833 8 70 C6.893903 65.575613 7.04506 61.991716 7.1875 57.4375 C7.235019 42.587845 1.148894 32.436118 -8 21 C-8.99 20.34 -9.98 19.68 -11 19 C-11 18.34 -11 17.68 -11 17 C-12.32 16.34 -13.64 15.68 -15 15 C-17.626508 13.411364 -20.228601 11.782039 -22.8125 10.125 C-24.180195 9.261328 -25.547891 8.397656 -26.957031 7.507812 C-27.459121 7.094023 -27.459121 7.094023 -30 5 C-29 1 -29 1 -23 -3 C-13.543852 -6.152049 -8.303058 -5.125344 0 0 Z " fill="#F5FBFC" transform="translate(654,543)"/>
<path d="M0 0 C3.105331 4.657996 2.416692 8.523476 2 14 C-1.081299 20.066308 -4.629661 22.724879 -11 25 C-18.893221 25.70162 -21.239772 25.506818 -28 21 C-30.700616 15.598769 -30.586267 11.992956 -30 6 C-22.414541 -5.074771 -11.189393 -7.459595 0 0 Z " fill="#63D6F0" transform="translate(414,548)"/>
<path d="M0 0 C1 2 1 2 -0.410156 6.304688 C-6.518521 28.186741 -0.359982 49.505487 7.511719 69.917969 C9 74 9 74 10 79 C-4.751329 64.248671 -12.730185 46.874703 -9.308594 25.726562 C-4.814607 7.22191 -4.814607 7.22191 0 0 Z " fill="#F1FAFC" transform="translate(357,558)"/>
<path d="M0 0 C4 4 4 4 4 11 C-2.511123 24.208278 -15.8474 28.659642 -29 33 C-29.165 33.165 -29.165 33.165 -30 34 C-33.666435 34.041196 -37.333576 34.042143 -41 34 C-39.406999 29.220997 -35.491839 28.876338 -31 27 C-28.325397 25.682658 -25.657895 24.350734 -23 23 C-21.02 22.01 -19.04 21.02 -17 20 C-8.470013 14.833952 -1.701056 10.206335 0 0 Z " fill="#E4EFF3" transform="translate(653,484)"/>
</svg>
